<svg width="56" height="57" viewBox="0 0 56 57" fill="none" xmlns="http://www.w3.org/2000/svg">
<g id="Primary Logomark">
<g id="Group">
<g id="Group_2">
<path id="Vector" d="M54.2802 42.4092L43.0174 0.367852C42.9835 0.241546 42.9003 0.133724 42.7863 0.0659501C42.6723 0.00125682 42.5368 -0.017227 42.4105 0.01666L0.369097 11.2825C0.104162 11.3534 -0.0498692 11.6245 0.0179047 11.8894L11.2838 53.9308C11.3423 54.1526 11.5426 54.2974 11.7613 54.2974C11.8044 54.2974 11.8475 54.2912 11.8907 54.282L53.9321 43.0161C54.0584 42.9822 54.1662 42.8991 54.234 42.7851C54.3017 42.6711 54.3171 42.5356 54.2832 42.4092H54.2802Z" fill="#011D49"/>
<path id="Vector_2" d="M54.4335 42.5879L43.1707 0.521905C43.1368 0.395599 43.0536 0.287777 42.9397 0.220003C42.8257 0.15531 42.6901 0.136826 42.5638 0.170713L0.522417 11.4458C0.257483 11.5167 0.103451 11.7878 0.171225 12.0527L11.4371 54.1188C11.4956 54.3406 11.6959 54.4854 11.9146 54.4854C11.9577 54.4854 12.0009 54.4792 12.044 54.4699L54.0854 43.1979C54.2117 43.164 54.3195 43.0808 54.3873 42.9669C54.4551 42.8529 54.4705 42.7173 54.4366 42.591L54.4335 42.5879Z" fill="#011D49"/>
<path id="Vector_3" d="M54.5909 42.7697L43.325 0.675958C43.2911 0.549652 43.2079 0.44183 43.0939 0.374056C42.98 0.309362 42.8444 0.290878 42.7181 0.324765L0.676714 11.606C0.41178 11.6769 0.257748 11.948 0.325522 12.2129L11.5914 54.3036C11.6499 54.5254 11.8502 54.6702 12.0689 54.6702C12.112 54.6702 12.1552 54.6641 12.1983 54.6548L54.2397 43.3766C54.366 43.3427 54.4738 43.2595 54.5416 43.1456C54.6093 43.0316 54.6248 42.896 54.5909 42.7697Z" fill="#011D49"/>
<path id="Vector_4" d="M54.745 42.9485L43.4791 0.833184C43.4453 0.706878 43.3621 0.599056 43.2481 0.531282C43.1341 0.466589 42.9986 0.448105 42.8723 0.481992L0.833941 11.7663C0.569006 11.8372 0.414975 12.1083 0.482748 12.3732L11.7486 54.4886C11.8072 54.7104 12.0074 54.8552 12.2261 54.8552C12.2692 54.8552 12.3124 54.849 12.3555 54.8398L54.3969 43.5554C54.5232 43.5215 54.631 43.4383 54.6988 43.3244C54.7666 43.2104 54.782 43.0748 54.7481 42.9485H54.745Z" fill="#011D49"/>
<path id="Vector_5" d="M54.8983 43.127L43.6325 0.986993C43.5986 0.860687 43.5154 0.752865 43.4014 0.685091C43.2874 0.620397 43.1519 0.601914 43.0256 0.635801L0.987261 11.9263C0.722326 11.9972 0.568295 12.2683 0.636069 12.5332L11.9019 54.6732C11.9605 54.895 12.1607 55.0398 12.3794 55.0398C12.4226 55.0398 12.4657 55.0336 12.5088 55.0213L54.5502 43.7308C54.6765 43.6969 54.7843 43.6137 54.8521 43.4997C54.9199 43.3857 54.9353 43.2502 54.9014 43.1239L54.8983 43.127Z" fill="#011D49"/>
<path id="Vector_6" d="M55.0526 43.3057L43.7898 1.14105C43.7559 1.01474 43.6728 0.906917 43.5588 0.839143C43.4448 0.77445 43.3093 0.755966 43.1829 0.789853L1.14156 12.0896C0.876623 12.1605 0.722592 12.4316 0.790366 12.6965L12.0562 54.8611C12.1148 55.0829 12.315 55.2277 12.5337 55.2277C12.5769 55.2277 12.62 55.2216 12.6631 55.2092L54.7045 43.9125C54.8308 43.8787 54.9386 43.7955 55.0064 43.6815C55.0742 43.5675 55.0896 43.432 55.0557 43.3057H55.0526Z" fill="#011D49"/>
<path id="Vector_7" d="M55.2069 43.4846L43.9441 1.29534C43.9102 1.16904 43.8271 1.06121 43.7131 0.99344C43.5991 0.928747 43.4636 0.910263 43.3372 0.94415L1.29585 12.2501C1.03092 12.3209 0.876889 12.592 0.944663 12.857L12.2105 55.0462C12.2691 55.268 12.4693 55.4128 12.688 55.4128C12.7312 55.4128 12.7743 55.4067 12.8174 55.3943L54.8588 44.0915C54.9851 44.0576 55.0929 43.9744 55.1607 43.8604C55.2285 43.7465 55.2439 43.6109 55.21 43.4846H55.2069Z" fill="#011D49"/>
<path id="Vector_8" d="M55.3643 43.6665L44.0984 1.45257C44.0645 1.32626 43.9814 1.21536 43.8674 1.15067C43.7534 1.08597 43.6179 1.06749 43.4915 1.10138L1.45015 12.4104C1.18522 12.4812 1.03119 12.7523 1.09896 13.0173L12.3648 55.2312C12.4234 55.453 12.6236 55.5978 12.8423 55.5978C12.8855 55.5978 12.9286 55.5916 12.9717 55.5793L55.0131 44.2672C55.1394 44.2333 55.2472 44.1501 55.315 44.0362C55.3828 43.9222 55.3982 43.7866 55.3643 43.6603V43.6665Z" fill="#011D49"/>
<path id="Vector_9" d="M55.5175 43.8449L44.2516 1.60638C44.2177 1.48007 44.1345 1.36917 44.0206 1.30448C43.9066 1.23978 43.771 1.2213 43.6447 1.25519L1.6064 12.5734C1.34147 12.6443 1.18744 12.9185 1.25521 13.1834L12.5211 55.422C12.5796 55.6438 12.7799 55.7916 12.9986 55.7916C13.0417 55.7916 13.0848 55.7855 13.128 55.7731L55.1694 44.4549C55.2957 44.421 55.4035 44.3378 55.4713 44.2239C55.539 44.1099 55.5544 43.9743 55.5206 43.848L55.5175 43.8449Z" fill="#011D49"/>
<path id="Vector_10" d="M55.6718 44.0239L44.4059 1.76067C44.372 1.63437 44.2888 1.52347 44.1749 1.45877C44.0609 1.39408 43.9253 1.3756 43.799 1.40948L1.7607 12.7339C1.49576 12.8047 1.34173 13.0789 1.40951 13.3439L12.6754 55.6071C12.7339 55.8289 12.9342 55.9767 13.1529 55.9767C13.196 55.9767 13.2391 55.9706 13.2823 55.9582L55.3237 44.6338C55.45 44.6 55.5578 44.5168 55.6256 44.4028C55.6933 44.2888 55.7087 44.1533 55.6749 44.027L55.6718 44.0239Z" fill="#011D49"/>
<path id="Vector_11" d="M55.8261 44.2023L44.5633 1.91448C44.5294 1.78818 44.4462 1.67727 44.3322 1.61258C44.2182 1.54789 44.0827 1.5294 43.9564 1.56329L1.915 12.8939C1.65006 12.9647 1.49603 13.2389 1.5638 13.5038L12.8297 55.7917C12.8882 56.0135 13.0884 56.1614 13.3072 56.1614C13.3503 56.1614 13.3934 56.1552 13.4366 56.1429L55.478 44.8123C55.6043 44.7784 55.7121 44.6952 55.7799 44.5813C55.8476 44.4673 55.863 44.3317 55.8291 44.2023H55.8261Z" fill="#011D49"/>
<path id="Vector_12" d="M55.9794 44.3811L44.7166 2.07171C44.6827 1.9454 44.5995 1.8345 44.4855 1.76981C44.3716 1.70511 44.236 1.68663 44.1097 1.72052L2.06832 13.0572C1.80338 13.1281 1.64935 13.4023 1.71712 13.6672L12.983 55.9797C13.0415 56.2015 13.2418 56.3494 13.4605 56.3494C13.5036 56.3494 13.5468 56.3432 13.5899 56.3309L55.6313 44.9942C55.7576 44.9603 55.8654 44.8771 55.9332 44.7631C56.0009 44.6491 56.0164 44.5136 55.9825 44.3842L55.9794 44.3811Z" fill="#011D49"/>
</g>
<g id="Group_3">
<path id="Vector_13" d="M42.5343 0.495626L0.494141 11.7603L11.7588 53.8004L53.7989 42.5358L42.5343 0.495626Z" fill="white"/>
<path id="Vector_14" d="M11.7604 54.2974C11.5416 54.2974 11.3414 54.1526 11.2829 53.9308L0.0169979 11.8894C-0.0538566 11.6245 0.103256 11.3534 0.36819 11.2825L42.4096 0.01666C42.5359 -0.017227 42.6714 0.00125682 42.7854 0.0659501C42.8994 0.130643 42.9826 0.238466 43.0165 0.367852L54.2823 42.4092C54.3162 42.5356 54.2977 42.6711 54.233 42.7851C54.1684 42.8991 54.0605 42.9822 53.9311 43.0161L11.8898 54.282C11.8466 54.2943 11.8035 54.2974 11.7604 54.2974ZM1.10138 12.1112L12.1116 53.1976L53.198 42.1905L42.1878 1.10104L1.10138 12.1112Z" fill="#011D49"/>
</g>
<g id="Group_4">
<g id="Group_5">
<path id="Vector_15" d="M23.0261 39.6768C21.9387 39.0484 20.6725 38.882 19.4619 39.2086C18.2481 39.532 17.2376 40.3114 16.6092 41.3989C15.9807 42.4864 15.8144 43.7525 16.1409 44.9632C16.4644 46.1769 17.2438 47.1874 18.3313 47.8158C19.0552 48.2348 19.8593 48.4474 20.6725 48.4474C21.0792 48.4474 21.492 48.395 21.8956 48.2841C23.1093 47.9606 24.1198 47.1812 24.7482 46.0938C25.3767 45.0063 25.543 43.7402 25.2165 42.5295C24.893 41.3157 24.1136 40.3053 23.0261 39.6768Z" fill="#011D49"/>
<path id="Vector_16" d="M48.5029 18.1462L46.3588 10.1427C46.3064 9.94243 46.1308 9.79456 45.9244 9.77916C45.7118 9.7576 45.5208 9.87466 45.4346 10.0626L35.9678 30.3639L21.0637 15.4691C20.9497 15.3551 20.7864 15.3027 20.6293 15.3305C20.4691 15.3582 20.3367 15.4629 20.2658 15.6077L15.2074 26.4546L2.08698 13.3373C1.92987 13.1802 1.68342 13.1463 1.48934 13.2572C1.29526 13.3681 1.19976 13.5961 1.25829 13.8148L4.01546 24.1072C4.03702 24.1904 4.08323 24.2674 4.14485 24.329L16.6183 36.8025C16.7323 36.9165 16.8956 36.9688 17.0527 36.9411C17.2129 36.9134 17.3454 36.8086 17.4162 36.6638L22.4746 25.8139L37.3787 40.7087C37.4711 40.8011 37.5974 40.8535 37.7299 40.8535C37.7576 40.8535 37.7884 40.8535 37.8162 40.8443C37.9764 40.8165 38.1088 40.7118 38.1797 40.567L48.4752 18.4881C48.5244 18.3834 48.5337 18.2632 48.506 18.1523L48.5029 18.1462Z" fill="#011D49"/>
</g>
<g id="Group_6">
<path id="Vector_17" d="M22.9373 39.5872C21.8498 38.9588 20.5837 38.7924 19.373 39.119C18.1592 39.4424 17.1488 40.2218 16.5203 41.3093C15.8919 42.3967 15.7255 43.6629 16.0521 44.8736C16.3755 46.0873 17.1549 47.0978 18.2424 47.7262C18.9663 48.1452 19.7704 48.3578 20.5837 48.3578C20.9903 48.3578 21.4031 48.3054 21.8067 48.1945C23.0205 47.871 24.0309 47.0916 24.6594 46.0042C25.2878 44.9167 25.4542 43.6506 25.1276 42.4399C24.8041 41.2261 24.0247 40.2157 22.9373 39.5872Z" fill="#011D49"/>
<path id="Vector_18" d="M48.414 18.0567L46.2699 10.0532C46.2175 9.85297 46.0419 9.70818 45.8355 9.6897C45.6291 9.67122 45.432 9.7852 45.3457 9.97312L35.8789 30.2745L20.9748 15.3796C20.8608 15.2656 20.6976 15.2133 20.5404 15.241C20.3833 15.2687 20.2478 15.3735 20.1769 15.5183L15.1185 26.3652L1.99812 13.2478C1.841 13.0907 1.59455 13.0568 1.40047 13.1677C1.20639 13.2786 1.11089 13.5066 1.16943 13.7253L3.92659 24.0177C3.94816 24.1009 3.99437 24.1779 4.05598 24.2395L16.5295 36.713C16.6434 36.827 16.8067 36.8794 16.9638 36.8516C17.1209 36.8239 17.2565 36.7192 17.3273 36.5744L22.3857 25.7244L37.2898 40.6193C37.3823 40.7117 37.5086 40.764 37.641 40.764C37.6688 40.764 37.6996 40.764 37.7273 40.7548C37.8875 40.7271 38.02 40.6223 38.0908 40.4775L48.3863 18.3986C48.4356 18.2939 48.4448 18.1738 48.4171 18.0629L48.414 18.0567Z" fill="#011D49"/>
</g>
<g id="Group_7">
<path id="Vector_19" d="M22.8455 39.4981C21.758 38.8697 20.4919 38.7033 19.2812 39.0298C18.0674 39.3533 17.057 40.1327 16.4285 41.2202C15.8001 42.3076 15.6337 43.5738 15.9603 44.7845C16.2837 45.9982 17.0631 47.0087 18.1506 47.6371C18.8745 48.0561 19.6786 48.2687 20.4919 48.2687C20.8985 48.2687 21.3113 48.2163 21.7149 48.1054C22.9287 47.7819 23.9391 47.0025 24.5676 45.9151C25.196 44.8276 25.3624 43.5615 25.0358 42.3508C24.7123 41.137 23.9329 40.1266 22.8455 39.4981Z" fill="#011D49"/>
<path id="Vector_20" d="M48.3253 17.9676L46.1812 9.9641C46.1288 9.76386 45.9532 9.61907 45.7468 9.60059C45.5404 9.5821 45.3432 9.69609 45.257 9.88401L35.7902 30.1854L20.8861 15.2905C20.7721 15.1765 20.6088 15.1242 20.4517 15.1519C20.2946 15.1796 20.1591 15.2844 20.0882 15.4291L15.0298 26.2761L1.90632 13.1587C1.74921 13.0016 1.50276 12.9677 1.30868 13.0786C1.1146 13.1895 1.0191 13.4175 1.07763 13.6362L3.8348 23.9286C3.85636 24.0118 3.90257 24.0888 3.96418 24.1504L16.4377 36.6239C16.5516 36.7379 16.7149 36.7903 16.872 36.7625C17.0291 36.7348 17.1647 36.6301 17.2355 36.4853L22.2939 25.6353L37.198 40.5301C37.2905 40.6226 37.4168 40.6749 37.5492 40.6749C37.577 40.6749 37.6078 40.6749 37.6355 40.6657C37.7957 40.638 37.9282 40.5332 37.999 40.3884L48.2945 18.3095C48.3438 18.2048 48.353 18.0847 48.3253 17.9737V17.9676Z" fill="#011D49"/>
</g>
<g id="Group_8">
<path id="Vector_21" d="M22.7556 39.4087C21.6682 38.7803 20.402 38.6139 19.1913 38.9405C17.9776 39.264 16.9671 40.0434 16.3387 41.1308C15.7102 42.2183 15.5439 43.4844 15.8704 44.6951C16.1939 45.9089 16.9733 46.9193 18.0608 47.5478C18.7847 47.9667 19.5887 48.1793 20.402 48.1793C20.8087 48.1793 21.2215 48.1269 21.625 48.016C22.8388 47.6926 23.8493 46.9132 24.4777 45.8257C25.1062 44.7382 25.2725 43.4721 24.946 42.2614C24.6225 41.0476 23.8431 40.0372 22.7556 39.4087Z" fill="#011D49"/>
<path id="Vector_22" d="M48.2355 17.8782L46.0913 9.87475C46.039 9.67451 45.8634 9.52972 45.657 9.51123C45.4506 9.49275 45.2534 9.60673 45.1671 9.79465L35.7004 30.096L20.7963 15.2012C20.6823 15.0872 20.519 15.0348 20.3619 15.0625C20.2048 15.0903 20.0692 15.195 19.9984 15.3398L14.94 26.1867L1.81648 13.0694C1.65936 12.9123 1.41291 12.8784 1.21883 12.9893C1.02475 13.1002 0.929254 13.3281 0.987786 13.5469L3.74495 23.8393C3.76652 23.9224 3.81273 23.9994 3.87434 24.0611L16.3478 36.5345C16.4618 36.6485 16.6251 36.7009 16.7822 36.6732C16.9393 36.6455 17.0749 36.5407 17.1457 36.3959L22.2041 25.5459L37.1082 40.4408C37.2006 40.5332 37.3269 40.5856 37.4594 40.5856C37.4871 40.5856 37.5179 40.5856 37.5457 40.5763C37.7058 40.5486 37.8383 40.4439 37.9092 40.2991L48.2046 18.2202C48.2539 18.1154 48.2632 17.9953 48.2355 17.8844V17.8782Z" fill="#011D49"/>
</g>
<g id="Group_9">
<path id="Vector_23" d="M22.6668 39.316C21.5793 38.6875 20.3132 38.5212 19.1025 38.8477C17.8887 39.1712 16.8783 39.9506 16.2498 41.038C15.6214 42.1255 15.455 43.3917 15.7816 44.6023C16.105 45.8161 16.8844 46.8266 17.9719 47.455C18.6958 47.874 19.4999 48.0865 20.3132 48.0865C20.7198 48.0865 21.1326 48.0342 21.5362 47.9233C22.7499 47.5998 23.7604 46.8204 24.3888 45.7329C25.0173 44.6455 25.1836 43.3793 24.8571 42.1686C24.5336 40.9549 23.7542 39.9444 22.6668 39.316Z" fill="#011D49"/>
<path id="Vector_24" d="M48.1435 17.7857L45.9994 9.78222C45.947 9.58198 45.7714 9.43719 45.565 9.4187C45.3586 9.40022 45.1614 9.5142 45.0752 9.70212L35.6084 30.0035L20.7043 15.1086C20.5903 14.9946 20.427 14.9423 20.2699 14.97C20.1128 14.9977 19.9773 15.1025 19.9064 15.2473L14.848 26.0942L1.72761 12.9768C1.5705 12.8197 1.32405 12.7858 1.12997 12.8967C0.935886 13.0076 0.840387 13.2356 0.898919 13.4543L3.65609 23.7467C3.67765 23.8299 3.72386 23.9069 3.78547 23.9685L16.259 36.442C16.3729 36.556 16.5362 36.6084 16.6933 36.5806C16.8504 36.5529 16.986 36.4482 17.0568 36.3034L22.1152 25.4534L37.0193 40.3483C37.1118 40.4407 37.2381 40.4931 37.3705 40.4931C37.3983 40.4931 37.4291 40.4931 37.4568 40.4838C37.617 40.4561 37.7494 40.3513 37.8203 40.2066L48.1158 18.1277C48.1651 18.0229 48.1743 17.9028 48.1466 17.7919L48.1435 17.7857Z" fill="#011D49"/>
</g>
<g id="Group_10">
<path id="Vector_25" d="M22.5769 39.2271C21.4895 38.5987 20.2233 38.4323 19.0126 38.7588C17.7989 39.0823 16.7884 39.8617 16.16 40.9492C15.5315 42.0366 15.3652 43.3028 15.6917 44.5135C16.0152 45.7272 16.7946 46.7377 17.882 47.3661C18.606 47.7851 19.41 47.9977 20.2233 47.9977C20.63 47.9977 21.0428 47.9453 21.4463 47.8344C22.6601 47.5109 23.6706 46.7315 24.299 45.6441C24.9274 44.5566 25.0938 43.2905 24.7673 42.0798C24.4438 40.866 23.6644 39.8556 22.5769 39.2271Z" fill="#011D49"/>
<path id="Vector_26" d="M48.0537 17.6963L45.9095 9.69286C45.8572 9.49262 45.6816 9.34783 45.4752 9.32935C45.2688 9.31086 45.0716 9.42485 44.9854 9.61277L35.5186 29.9141L20.6145 15.0193C20.5005 14.9053 20.3372 14.8529 20.1801 14.8806C20.023 14.9084 19.8874 15.0131 19.8166 15.1579L14.7582 26.0048L1.63777 12.8875C1.48065 12.7304 1.2342 12.6965 1.04012 12.8074C0.846043 12.9183 0.750543 13.1463 0.809075 13.365L3.56624 23.6574C3.58781 23.7405 3.63402 23.8176 3.69563 23.8792L16.1691 36.3527C16.2831 36.4666 16.4464 36.519 16.6035 36.4913C16.7606 36.4636 16.8961 36.3588 16.967 36.214L22.0254 25.364L36.9295 40.2589C37.0219 40.3513 37.1482 40.4037 37.2807 40.4037C37.3084 40.4037 37.3392 40.4037 37.3669 40.3944C37.5271 40.3667 37.6596 40.262 37.7305 40.1172L48.0259 18.0383C48.0752 17.9336 48.0845 17.8134 48.0567 17.7025L48.0537 17.6963Z" fill="#011D49"/>
</g>
<g id="Group_11">
<path id="Vector_27" d="M22.4871 39.1375C21.3996 38.5091 20.1335 38.3427 18.9228 38.6692C17.709 38.9927 16.6986 39.7721 16.0701 40.8596C15.4417 41.947 15.2753 43.2132 15.6019 44.4239C15.9253 45.6376 16.7047 46.6481 17.7922 47.2765C18.5161 47.6955 19.3202 47.9081 20.1335 47.9081C20.5401 47.9081 20.9529 47.8557 21.3565 47.7448C22.5703 47.4213 23.5807 46.6419 24.2092 45.5545C24.8376 44.467 25.004 43.2009 24.6774 41.9902C24.3539 40.7764 23.5745 39.766 22.4871 39.1375Z" fill="#011D49"/>
<path id="Vector_28" d="M47.9638 17.607L45.8197 9.60351C45.7673 9.40327 45.5917 9.25848 45.3853 9.23999C45.1789 9.22151 44.9818 9.33549 44.8955 9.52341L35.4287 29.8248L20.5246 14.9299C20.4106 14.8159 20.2474 14.7636 20.0903 14.7913C19.9331 14.819 19.7976 14.9238 19.7267 15.0685L14.6683 25.9155L1.54792 12.7981C1.39081 12.641 1.14436 12.6071 0.950279 12.718C0.756199 12.8289 0.660699 13.0569 0.719231 13.2756L3.4764 23.568C3.49796 23.6512 3.54417 23.7282 3.60578 23.7898L16.0793 36.2633C16.1932 36.3773 16.3565 36.4297 16.5136 36.4019C16.6707 36.3742 16.8063 36.2695 16.8771 36.1247L21.9355 25.2747L36.8397 40.1695C36.9321 40.262 37.0584 40.3143 37.1908 40.3143C37.2186 40.3143 37.2494 40.3143 37.2771 40.3051C37.4373 40.2774 37.5698 40.1726 37.6406 40.0278L47.9361 17.9489C47.9854 17.8442 47.9946 17.7241 47.9669 17.6132L47.9638 17.607Z" fill="#011D49"/>
</g>
<g id="Group_12">
<path id="Vector_29" d="M22.3953 39.0484C21.3078 38.4199 20.0417 38.2536 18.831 38.5801C17.6172 38.9036 16.6068 39.683 15.9783 40.7705C15.3499 41.8579 15.1835 43.1241 15.5101 44.3348C15.8335 45.5485 16.6129 46.559 17.7004 47.1874C18.4243 47.6064 19.2284 47.819 20.0417 47.819C20.4483 47.819 20.8611 47.7666 21.2647 47.6557C22.4785 47.3322 23.4889 46.5528 24.1174 45.4654C24.7458 44.3779 24.9122 43.1117 24.5856 41.9011C24.2621 40.6873 23.4827 39.6768 22.3953 39.0484Z" fill="#011D49"/>
<path id="Vector_30" d="M47.8751 17.5176L45.731 9.51415C45.6786 9.31391 45.503 9.16912 45.2966 9.15064C45.0902 9.13215 44.893 9.24614 44.8068 9.43405L35.34 29.7354L20.4359 14.8406C20.3219 14.7266 20.1586 14.6742 20.0015 14.7019C19.8444 14.7297 19.7089 14.8344 19.638 14.9792L14.5796 25.8261L1.45612 12.7088C1.29901 12.5517 1.05256 12.5178 0.858482 12.6287C0.664402 12.7396 0.568902 12.9675 0.627434 13.1863L3.3846 23.4787C3.40617 23.5618 3.45237 23.6389 3.51399 23.7005L15.9875 36.174C16.1015 36.2879 16.2647 36.3403 16.4218 36.3126C16.5789 36.2849 16.7145 36.1801 16.7854 36.0353L21.8438 25.1853L36.7479 40.0802C36.8403 40.1726 36.9666 40.225 37.099 40.225C37.1268 40.225 37.1576 40.225 37.1853 40.2157C37.3455 40.188 37.478 40.0833 37.5488 39.9385L47.8443 17.8596C47.8936 17.7548 47.9028 17.6347 47.8751 17.5238V17.5176Z" fill="#011D49"/>
</g>
<g id="Group_13">
<path id="Vector_31" d="M22.3064 38.959C21.219 38.3306 19.9528 38.1642 18.7421 38.4908C17.5284 38.8142 16.5179 39.5936 15.8895 40.6811C15.261 41.7686 15.0947 43.0347 15.4212 44.2454C15.7447 45.4592 16.5241 46.4696 17.6115 47.0981C18.3355 47.517 19.1395 47.7296 19.9528 47.7296C20.3595 47.7296 20.7723 47.6772 21.1758 47.5663C22.3896 47.2429 23.4 46.4635 24.0285 45.376C24.6569 44.2885 24.8233 43.0224 24.4967 41.8117C24.1733 40.5979 23.3939 39.5875 22.3064 38.959Z" fill="#011D49"/>
<path id="Vector_32" d="M47.7862 17.4285L45.6421 9.42504C45.5897 9.2248 45.4141 9.08001 45.2077 9.06153C45.0013 9.04304 44.8042 9.15702 44.7179 9.34494L35.2511 29.6463L20.347 14.7515C20.2331 14.6375 20.0698 14.5851 19.9127 14.6128C19.7556 14.6406 19.62 14.7453 19.5492 14.8901L14.4908 25.737L1.36726 12.6197C1.21015 12.4625 0.963695 12.4287 0.769615 12.5396C0.575535 12.6505 0.480035 12.8784 0.538567 13.0972L3.29573 23.3895C3.3173 23.4727 3.36351 23.5497 3.42512 23.6114L15.8986 36.0848C16.0126 36.1988 16.1759 36.2512 16.333 36.2235C16.4901 36.1957 16.6256 36.091 16.6965 35.9462L21.7549 25.0962L36.659 39.9911C36.7514 40.0835 36.8777 40.1359 37.0102 40.1359C37.0379 40.1359 37.0687 40.1359 37.0964 40.1266C37.2566 40.0989 37.3891 39.9942 37.4599 39.8494L47.7554 17.7705C47.8047 17.6657 47.814 17.5456 47.7862 17.4347V17.4285Z" fill="#011D49"/>
</g>
<g id="Group_14">
<path id="Vector_33" d="M22.2166 38.8665C21.1291 38.2381 19.863 38.0717 18.6523 38.3983C17.4385 38.7217 16.4281 39.5011 15.7996 40.5886C15.1712 41.676 15.0048 42.9422 15.3314 44.1529C15.6548 45.3666 16.4342 46.3771 17.5217 47.0055C18.2456 47.4245 19.0497 47.6371 19.863 47.6371C20.2696 47.6371 20.6824 47.5847 21.086 47.4738C22.2998 47.1503 23.3102 46.3709 23.9386 45.2835C24.5671 44.196 24.7335 42.9299 24.4069 41.7192C24.0834 40.5054 23.304 39.495 22.2166 38.8665Z" fill="#011D49"/>
<path id="Vector_34" d="M47.6933 17.3362L45.5492 9.33275C45.4968 9.13251 45.3212 8.98772 45.1148 8.96924C44.9084 8.95076 44.7113 9.06474 44.625 9.25266L35.1582 29.554L20.2541 14.6592C20.1401 14.5452 19.9769 14.4928 19.8197 14.5205C19.6626 14.5483 19.5271 14.653 19.4562 14.7978L14.3978 25.6447L1.27741 12.5274C1.1203 12.3703 0.873851 12.3364 0.679771 12.4473C0.485691 12.5582 0.390192 12.7861 0.448724 13.0049L3.20589 23.2973C3.22745 23.3804 3.27366 23.4575 3.33528 23.5191L15.8088 35.9926C15.9227 36.1065 16.086 36.1589 16.2431 36.1312C16.4002 36.1035 16.5358 35.9987 16.6066 35.8539L21.665 25.0039L36.5691 39.8988C36.6616 39.9912 36.7879 40.0436 36.9203 40.0436C36.9481 40.0436 36.9789 40.0436 37.0066 40.0343C37.1668 40.0066 37.2993 39.9019 37.3701 39.7571L47.6656 17.6782C47.7149 17.5734 47.7241 17.4533 47.6964 17.3424L47.6933 17.3362Z" fill="#011D49"/>
</g>
<g id="Group_15">
<path id="Vector_35" d="M22.1277 38.7772C21.0402 38.1487 19.7741 37.9824 18.5634 38.3089C17.3496 38.6324 16.3392 39.4118 15.7107 40.4992C15.0823 41.5867 14.9159 42.8528 15.2425 44.0635C15.566 45.2773 16.3454 46.2877 17.4328 46.9162C18.1568 47.3352 18.9608 47.5477 19.7741 47.5477C20.1807 47.5477 20.5936 47.4953 20.9971 47.3844C22.2109 47.061 23.2213 46.2816 23.8498 45.1941C24.4782 44.1066 24.6446 42.8405 24.318 41.6298C23.9946 40.4161 23.2152 39.4056 22.1277 38.7772Z" fill="#011D49"/>
<path id="Vector_36" d="M47.6044 17.2469L45.4603 9.2434C45.4079 9.04316 45.2323 8.89837 45.0259 8.87988C44.8195 8.8614 44.6224 8.97538 44.5361 9.1633L35.0693 29.4647L20.1652 14.5698C20.0513 14.4558 19.888 14.4035 19.7309 14.4312C19.5738 14.4589 19.4382 14.5637 19.3674 14.7084L14.309 25.5554L1.18855 12.438C1.03143 12.2809 0.784984 12.247 0.590904 12.3579C0.396824 12.4688 0.301324 12.6968 0.359856 12.9155L3.11702 23.2079C3.13859 23.2911 3.1848 23.3681 3.24641 23.4297L15.7199 35.9032C15.8339 36.0172 15.9971 36.0696 16.1543 36.0418C16.3114 36.0141 16.4469 35.9094 16.5178 35.7646L21.5762 24.9146L36.4803 39.8094C36.5727 39.9019 36.699 39.9542 36.8315 39.9542C36.8592 39.9542 36.89 39.9542 36.9177 39.945C37.0779 39.9173 37.2104 39.8125 37.2812 39.6677L47.5767 17.5888C47.626 17.4841 47.6352 17.3639 47.6075 17.253L47.6044 17.2469Z" fill="#011D49"/>
</g>
<g id="Group_16">
<path id="Vector_37" d="M22.0379 38.688C20.9504 38.0596 19.6843 37.8932 18.4736 38.2198C17.2598 38.5433 16.2494 39.3227 15.6209 40.4101C14.9925 41.4976 14.8261 42.7637 15.1526 43.9744C15.4761 45.1882 16.2555 46.1986 17.343 46.8271C18.0669 47.246 18.871 47.4586 19.6843 47.4586C20.0909 47.4586 20.5037 47.4062 20.9073 47.2953C22.121 46.9719 23.1315 46.1925 23.7599 45.105C24.3884 44.0175 24.5547 42.7514 24.2282 41.5407C23.9047 40.3269 23.1253 39.3165 22.0379 38.688Z" fill="#011D49"/>
<path id="Vector_38" d="M47.5146 17.1571L45.3705 9.15366C45.3181 8.95342 45.1425 8.80555 44.9361 8.79015C44.7235 8.76858 44.5325 8.88565 44.4463 9.07356L34.9795 29.3749L20.0754 14.4801C19.9614 14.3661 19.7981 14.3137 19.641 14.3414C19.4808 14.3692 19.3484 14.4739 19.2775 14.6187L14.2191 25.4656L1.0987 12.3483C0.941591 12.1912 0.69514 12.1573 0.50106 12.2682C0.30698 12.3791 0.211481 12.6071 0.270013 12.8258L3.02718 23.1182C3.04874 23.2013 3.09495 23.2784 3.15657 23.34L15.63 35.8135C15.744 35.9274 15.9073 35.9798 16.0644 35.9521C16.2246 35.9244 16.3571 35.8196 16.4279 35.6748L21.4863 24.8248L36.3904 39.7197C36.4829 39.8121 36.6092 39.8645 36.7416 39.8645C36.7694 39.8645 36.8002 39.8645 36.8279 39.8552C36.9881 39.8275 37.1205 39.7228 37.1914 39.578L47.4869 17.4991C47.5362 17.3944 47.5454 17.2742 47.5177 17.1633L47.5146 17.1571Z" fill="#011D49"/>
</g>
</g>
<g id="Group_17">
<g id="Group_18">
<path id="Vector_39" d="M19.6875 46.9624C22.0099 46.9624 23.8925 45.0797 23.8925 42.7573C23.8925 40.4349 22.0099 38.5522 19.6875 38.5522C17.3651 38.5522 15.4824 40.4349 15.4824 42.7573C15.4824 45.0797 17.3651 46.9624 19.6875 46.9624Z" fill="#FC5E49"/>
<path id="Vector_40" d="M19.6777 47.4586C18.8644 47.4586 18.0604 47.246 17.3364 46.8271C16.249 46.1986 15.4726 45.1851 15.1461 43.9744C14.8196 42.7606 14.989 41.4976 15.6144 40.4101C16.2428 39.3227 17.2563 38.5463 18.467 38.2198C19.6777 37.8932 20.9439 38.0596 22.0313 38.688C23.1188 39.3165 23.8951 40.33 24.2216 41.5407C24.5482 42.7545 24.3788 44.0175 23.7534 45.105C23.1249 46.1925 22.1114 46.9688 20.9007 47.2953C20.4972 47.4032 20.0844 47.4586 19.6777 47.4586ZM19.6931 39.0454C19.3696 39.0454 19.0462 39.0885 18.7258 39.1748C17.7677 39.4305 16.9698 40.0466 16.4739 40.903C15.9779 41.7625 15.8454 42.7606 16.1042 43.7187C16.3599 44.6768 16.976 45.4747 17.8324 45.9707C18.6919 46.4666 19.69 46.596 20.6481 46.3403C21.6062 46.0846 22.4041 45.4685 22.9001 44.6121C23.396 43.7526 23.5285 42.7545 23.2697 41.7964C23.014 40.8383 22.3979 40.0404 21.5415 39.5445C20.9685 39.2148 20.337 39.0454 19.6931 39.0454Z" fill="#011D49"/>
</g>
<g id="Group_19">
<path id="Vector_41" d="M44.8925 9.28027L35.1269 30.2224L19.7238 14.8285L14.3665 26.3162L0.74707 12.6998L3.50424 22.9891L15.9777 35.4626L21.338 23.9718L36.7412 39.3657L47.0367 17.2868L44.8925 9.28027Z" fill="#FFD96E"/>
<path id="Vector_42" d="M36.7416 39.8583C36.6122 39.8583 36.4859 39.806 36.3904 39.7135L21.4863 24.8187L16.4279 35.6687C16.3602 35.8165 16.2246 35.9182 16.0644 35.9459C15.9073 35.9767 15.744 35.9213 15.63 35.8073L3.15657 23.34C3.09495 23.2784 3.05182 23.2013 3.02718 23.1182L0.270013 12.8258C0.211481 12.6101 0.30698 12.3822 0.50106 12.2682C0.69514 12.1573 0.941591 12.1881 1.0987 12.3483L14.2191 25.4656L19.2775 14.6187C19.3453 14.4739 19.4808 14.3692 19.641 14.3414C19.7981 14.3137 19.9614 14.363 20.0754 14.4801L34.9795 29.3749L44.4463 9.07356C44.5326 8.88565 44.7235 8.76858 44.9361 8.79015C45.1425 8.80863 45.3181 8.95342 45.3705 9.15366L47.5146 17.1571C47.5454 17.268 47.5331 17.3882 47.4838 17.4929L37.1883 39.5718C37.1205 39.7166 36.985 39.8214 36.8248 39.8491C36.7971 39.8553 36.7663 39.8583 36.7385 39.8583H36.7416ZM21.3385 23.4755C21.4678 23.4755 21.5942 23.5279 21.6897 23.6203L36.5938 38.5152L46.5134 17.2403L44.7667 10.7217L35.5771 30.4316C35.5094 30.5764 35.3738 30.6811 35.2136 30.7088C35.0534 30.7397 34.8932 30.6842 34.7793 30.5702L19.8752 15.6754L14.8168 26.5223C14.749 26.6701 14.6134 26.7718 14.4532 26.7995C14.2931 26.8273 14.1329 26.778 14.0189 26.6609L1.70251 14.3538L3.94829 22.7331L15.8303 34.6151L20.8887 23.7651C20.9565 23.6203 21.092 23.5156 21.2522 23.4878C21.2799 23.4817 21.3107 23.4786 21.3385 23.4786V23.4755Z" fill="#011D49"/>
</g>
</g>
</g>
</g>
</svg>
